<svg width="84" height="66" viewBox="0 0 84 66" fill="none" xmlns="http://www.w3.org/2000/svg">
<path d="M46.3333 53.6611L59.3333 62.6014L81 47.7009" stroke="#1E1E1E" stroke-width="6" stroke-linecap="round" stroke-linejoin="round"/>
<path d="M29 62.6021H20.3333C15.5469 62.6021 11.6667 59.9337 11.6667 56.6419V30.3624C11.6667 30.0093 11.5147 29.6642 11.23 29.3703L3.43667 21.3311C3.15193 21.0373 3 20.6922 3 20.3392V4.78806C3 3.80054 4.16406 3 5.6 3H13.4C14.8359 3 16 3.80054 16 4.78806V10.1522C16 11.1398 17.1641 11.9403 18.6 11.9403H30.7333C32.1693 11.9403 33.3333 11.1398 33.3333 10.1522V4.78806C33.3333 3.80054 34.4973 3 35.9333 3H48.0667C49.5027 3 50.6667 3.80054 50.6667 4.78806V10.1522C50.6667 11.1398 51.8306 11.9403 53.2667 11.9403H65.4C66.8361 11.9403 68 11.1398 68 10.1522V4.78806C68 3.80054 69.1639 3 70.6 3H78.4C79.8361 3 81 3.80054 81 4.78806V20.3392C81 20.6922 80.8479 21.0373 80.5632 21.3311L72.7701 29.3703C72.4854 29.6642 72.3333 30.0093 72.3333 30.3624V37.2712" stroke="#1E1E1E" stroke-width="6" stroke-linecap="round" stroke-linejoin="round"/>
</svg>
