<svg width="72" height="66" viewBox="0 0 72 66" fill="none" xmlns="http://www.w3.org/2000/svg">
<path d="M36 62.6021C17.7746 62.6021 3 49.2596 3 32.801C3 16.3424 17.7746 3 36 3C54.2252 3 69 16.3424 69 32.801C69 49.2596 54.2252 62.6021 36 62.6021Z" stroke="#1E1E1E" stroke-width="6" stroke-linecap="round" stroke-linejoin="round"/>
<path d="M50.85 40.2524C50.85 40.2524 45.9 46.2126 36 46.2126C26.1 46.2126 21.15 40.2524 21.15 40.2524" stroke="#1E1E1E" stroke-width="6" stroke-linecap="round" stroke-linejoin="round"/>
<path d="M47.55 23.8612C46.6389 23.8612 45.9 23.1941 45.9 22.3712C45.9 21.5482 46.6389 20.8811 47.55 20.8811C48.4612 20.8811 49.2 21.5482 49.2 22.3712C49.2 23.1941 48.4612 23.8612 47.55 23.8612Z" fill="#1E1E1E" stroke="#1E1E1E" stroke-width="6" stroke-linecap="round" stroke-linejoin="round"/>
<path d="M24.45 23.8612C23.5388 23.8612 22.8 23.1941 22.8 22.3712C22.8 21.5482 23.5388 20.8811 24.45 20.8811C25.3613 20.8811 26.1 21.5482 26.1 22.3712C26.1 23.1941 25.3613 23.8612 24.45 23.8612Z" fill="#1E1E1E" stroke="#1E1E1E" stroke-width="6" stroke-linecap="round" stroke-linejoin="round"/>
</svg>
