<svg width="86" height="58" viewBox="0 0 86 58" fill="none" xmlns="http://www.w3.org/2000/svg">
<path d="M51 28.7071L37 35.948V21.4661L51 28.7071Z" fill="#1E1E1E" stroke="#1E1E1E" stroke-width="6" stroke-linecap="round" stroke-linejoin="round"/>
<path d="M3 31.2674V26.144C3 15.6614 3 10.4202 6.62196 7.04779C10.244 3.6754 15.9462 3.52942 27.3508 3.23747C32.7549 3.09913 38.2752 3 43 3C47.7248 3 53.2452 3.09913 58.6492 3.23747C70.0536 3.52942 75.756 3.6754 79.378 7.04779C83 10.4202 83 15.6614 83 26.144V31.2674C83 41.7498 83 46.9912 79.378 50.3633C75.756 53.7358 70.054 53.8817 58.6496 54.1739C53.2452 54.3122 47.7248 54.4114 43 54.4114C38.2752 54.4114 32.7547 54.3122 27.3504 54.1739C15.946 53.8817 10.2439 53.7358 6.62192 50.3633C3 46.9912 3 41.7498 3 31.2674Z" stroke="#1E1E1E" stroke-width="6"/>
</svg>
