<svg width="79" height="12" viewBox="0 0 79 12" fill="none" xmlns="http://www.w3.org/2000/svg">
<path d="M4.094 11L0.916 0.64H3.1L4.458 5.68C4.78 6.842 5.018 7.864 5.34 9.04H5.41C5.746 7.864 5.97 6.842 6.278 5.68L7.622 0.64H9.736L6.558 11H4.094ZM10.942 11V0.64H13.014V11H10.942ZM15.5631 11V0.64H21.9191V2.362H17.6351V4.756H21.2611V6.506H17.6351V9.264H22.0731V11H15.5631ZM25.1563 11L23.1543 0.64H25.2683L26.0803 5.694C26.2483 6.786 26.4023 7.892 26.5703 9.012H26.6263C26.8363 7.892 27.0603 6.786 27.2843 5.694L28.4743 0.64H30.2523L31.4563 5.694C31.6803 6.772 31.8763 7.892 32.1143 9.012H32.1843C32.3243 7.892 32.4923 6.786 32.6323 5.694L33.4723 0.64H35.4323L33.5143 11H30.9243L29.7763 5.876C29.5943 5.078 29.4543 4.266 29.3283 3.482H29.2723C29.1323 4.266 28.9783 5.078 28.8243 5.876L27.6903 11H25.1563ZM40.1588 11V0.64H42.4408L44.2048 5.498C44.4428 6.142 44.6248 6.814 44.8488 7.486H44.9048C45.1428 6.814 45.3248 6.142 45.5348 5.498L47.2568 0.64H49.5528V11H47.6628V6.674C47.6628 5.694 47.8308 4.252 47.9428 3.272H47.8728L47.0188 5.708L45.4228 10.076H44.2328L42.6368 5.708L41.7968 3.272H41.7408C41.8528 4.252 42.0068 5.694 42.0068 6.674V11H40.1588ZM56.2103 11.196C53.4523 11.196 51.5763 9.152 51.5763 5.778C51.5763 2.404 53.4523 0.458 56.2103 0.458C58.9543 0.458 60.8303 2.418 60.8303 5.778C60.8303 9.152 58.9543 11.196 56.2103 11.196ZM56.2103 9.404C57.7503 9.404 58.7303 7.99 58.7303 5.778C58.7303 3.566 57.7503 2.236 56.2103 2.236C54.6563 2.236 53.6903 3.566 53.6903 5.778C53.6903 7.99 54.6563 9.404 56.2103 9.404ZM62.8678 11V0.64H66.4658C68.6358 0.64 70.3578 1.396 70.3578 3.776C70.3578 6.086 68.6358 7.094 66.4658 7.094H64.9398V11H62.8678ZM64.9398 5.456H66.2698C67.6138 5.456 68.3418 4.882 68.3418 3.776C68.3418 2.67 67.6138 2.292 66.2698 2.292H64.9398V5.456ZM68.4958 11L66.0878 6.562L67.5298 5.26L70.8058 11H68.4958ZM72.4107 11V0.64H78.7667V2.362H74.4827V4.756H78.1087V6.506H74.4827V9.264H78.9207V11H72.4107Z" fill="#1E1E1E"/>
</svg>
