<svg width="15" height="15" viewBox="0 0 15 15" fill="none" xmlns="http://www.w3.org/2000/svg">
<mask id="mask0_0_111" style="mask-type:alpha" maskUnits="userSpaceOnUse" x="0" y="0" width="15" height="15">
<rect width="15" height="15" fill="#D9D9D9"/>
</mask>
<g mask="url(#mask0_0_111)">
<path d="M4.46875 13.1875C4.3125 13.0312 4.23438 12.8464 4.23438 12.6328C4.23438 12.4193 4.3125 12.2344 4.46875 12.0781L9.04688 7.5L4.45312 2.90625C4.30729 2.76042 4.23438 2.57812 4.23438 2.35938C4.23438 2.14062 4.3125 1.95312 4.46875 1.79688C4.625 1.64062 4.8099 1.5625 5.02344 1.5625C5.23698 1.5625 5.42188 1.64062 5.57812 1.79688L10.8281 7.0625C10.8906 7.125 10.9349 7.19271 10.9609 7.26562C10.987 7.33854 11 7.41667 11 7.5C11 7.58333 10.987 7.66146 10.9609 7.73438C10.9349 7.80729 10.8906 7.875 10.8281 7.9375L5.5625 13.2031C5.41667 13.349 5.23698 13.4219 5.02344 13.4219C4.8099 13.4219 4.625 13.3438 4.46875 13.1875Z" fill="#3D3D3D"/>
</g>
</svg>
