<svg width="30" height="30" viewBox="0 0 30 30" fill="none" xmlns="http://www.w3.org/2000/svg">
<mask id="mask0_0_87" style="mask-type:alpha" maskUnits="userSpaceOnUse" x="0" y="0" width="30" height="30">
<rect width="30" height="30" fill="#D9D9D9"/>
</mask>
<g mask="url(#mask0_0_87)">
<path d="M8.125 26.25C7.60417 26.25 7.16146 26.0677 6.79688 25.7031C6.43229 25.3385 6.25 24.8958 6.25 24.375V22.4375C5.875 22.0208 5.57292 21.5573 5.34375 21.0469C5.11458 20.5365 5 19.9792 5 19.375V7.5C5 5.77083 5.80208 4.50521 7.40625 3.70312C9.01042 2.90104 11.5417 2.5 15 2.5C18.5833 2.5 21.1458 2.88542 22.6875 3.65625C24.2292 4.42708 25 5.70833 25 7.5V19.375C25 19.9792 24.8854 20.5365 24.6562 21.0469C24.4271 21.5573 24.125 22.0208 23.75 22.4375V24.375C23.75 24.8958 23.5677 25.3385 23.2031 25.7031C22.8385 26.0677 22.3958 26.25 21.875 26.25C21.3542 26.25 20.9115 26.0677 20.5469 25.7031C20.1823 25.3385 20 24.8958 20 24.375V23.75H10V24.375C10 24.8958 9.81771 25.3385 9.45312 25.7031C9.08854 26.0677 8.64583 26.25 8.125 26.25ZM7.5 12.5H22.5V8.75H7.5V12.5ZM10.625 20C11.1458 20 11.5885 19.8177 11.9531 19.4531C12.3177 19.0885 12.5 18.6458 12.5 18.125C12.5 17.6042 12.3177 17.1615 11.9531 16.7969C11.5885 16.4323 11.1458 16.25 10.625 16.25C10.1042 16.25 9.66146 16.4323 9.29688 16.7969C8.93229 17.1615 8.75 17.6042 8.75 18.125C8.75 18.6458 8.93229 19.0885 9.29688 19.4531C9.66146 19.8177 10.1042 20 10.625 20ZM19.375 20C19.8958 20 20.3385 19.8177 20.7031 19.4531C21.0677 19.0885 21.25 18.6458 21.25 18.125C21.25 17.6042 21.0677 17.1615 20.7031 16.7969C20.3385 16.4323 19.8958 16.25 19.375 16.25C18.8542 16.25 18.4115 16.4323 18.0469 16.7969C17.6823 17.1615 17.5 17.6042 17.5 18.125C17.5 18.6458 17.6823 19.0885 18.0469 19.4531C18.4115 19.8177 18.8542 20 19.375 20ZM8.0625 6.25H22.0625C21.75 5.89583 21.0781 5.59896 20.0469 5.35938C19.0156 5.11979 17.3542 5 15.0625 5C12.8333 5 11.2031 5.13021 10.1719 5.39062C9.14063 5.65104 8.4375 5.9375 8.0625 6.25ZM10 21.25H20C20.6875 21.25 21.276 21.0052 21.7656 20.5156C22.2552 20.026 22.5 19.4375 22.5 18.75V15H7.5V18.75C7.5 19.4375 7.74479 20.026 8.23438 20.5156C8.72396 21.0052 9.3125 21.25 10 21.25Z" fill="white" fill-opacity="0.8"/>
</g>
</svg>
