<svg width="30" height="30" viewBox="0 0 30 30" fill="none" xmlns="http://www.w3.org/2000/svg">
<mask id="mask0_0_84" style="mask-type:alpha" maskUnits="userSpaceOnUse" x="0" y="0" width="30" height="30">
<rect width="30" height="30" fill="#D9D9D9"/>
</mask>
<g mask="url(#mask0_0_84)">
<path d="M3.75 25C3.39583 25 3.09896 24.8802 2.85938 24.6406C2.61979 24.401 2.5 24.1042 2.5 23.75V13.0312C2.5 12.8646 2.53125 12.7031 2.59375 12.5469C2.65625 12.3906 2.75 12.25 2.875 12.125L9.125 5.875C9.25 5.75 9.38542 5.66146 9.53125 5.60938C9.67708 5.55729 9.83333 5.53125 10 5.53125C10.1667 5.53125 10.3229 5.55729 10.4688 5.60938C10.6146 5.66146 10.75 5.75 10.875 5.875L17.125 12.125C17.25 12.25 17.3438 12.3906 17.4062 12.5469C17.4688 12.7031 17.5 12.8646 17.5 13.0312V23.75C17.5 24.1042 17.3802 24.401 17.1406 24.6406C16.901 24.8802 16.6042 25 16.25 25H3.75ZM5 22.5H8.75V20C8.75 19.6458 8.86979 19.349 9.10938 19.1094C9.34896 18.8698 9.64583 18.75 10 18.75C10.3542 18.75 10.651 18.8698 10.8906 19.1094C11.1302 19.349 11.25 19.6458 11.25 20V22.5H15V13.5312L10 8.53125L5 13.5312V22.5ZM10 16.25C9.64583 16.25 9.34896 16.1302 9.10938 15.8906C8.86979 15.651 8.75 15.3542 8.75 15C8.75 14.6458 8.86979 14.349 9.10938 14.1094C9.34896 13.8698 9.64583 13.75 10 13.75C10.3542 13.75 10.651 13.8698 10.8906 14.1094C11.1302 14.349 11.25 14.6458 11.25 15C11.25 15.3542 11.1302 15.651 10.8906 15.8906C10.651 16.1302 10.3542 16.25 10 16.25ZM21.25 25C20.8958 25 20.599 24.8802 20.3594 24.6406C20.1198 24.401 20 24.1042 20 23.75V11.7188C20 11.6771 19.9375 11.5312 19.8125 11.2812L15.6563 7.125C15.2604 6.72917 15.1667 6.27604 15.375 5.76562C15.5833 5.25521 15.9688 5 16.5312 5C16.6979 5 16.8646 5.03646 17.0312 5.10938C17.1979 5.18229 17.3333 5.27083 17.4375 5.375L22.125 10.0625C22.25 10.1875 22.3438 10.3281 22.4062 10.4844C22.4688 10.6406 22.5 10.8021 22.5 10.9688V23.75C22.5 24.1042 22.3802 24.401 22.1406 24.6406C21.901 24.8802 21.6042 25 21.25 25ZM26.25 25C25.8958 25 25.599 24.8802 25.3594 24.6406C25.1198 24.401 25 24.1042 25 23.75V9.65625C25 9.61458 24.9375 9.46875 24.8125 9.21875L22.7188 7.125C22.3229 6.72917 22.2292 6.27604 22.4375 5.76562C22.6458 5.25521 23.0312 5 23.5938 5C23.7604 5 23.9271 5.03646 24.0938 5.10938C24.2604 5.18229 24.3958 5.27083 24.5 5.375L27.125 8C27.25 8.125 27.3438 8.26562 27.4063 8.42188C27.4688 8.57812 27.5 8.73958 27.5 8.90625V23.75C27.5 24.1042 27.3802 24.401 27.1406 24.6406C26.901 24.8802 26.6042 25 26.25 25Z" fill="white" fill-opacity="0.8"/>
</g>
</svg>
