<svg width="30" height="30" viewBox="0 0 30 30" fill="none" xmlns="http://www.w3.org/2000/svg">
<mask id="mask0_0_78" style="mask-type:alpha" maskUnits="userSpaceOnUse" x="0" y="0" width="30" height="30">
<rect width="30" height="30" fill="#D9D9D9"/>
</mask>
<g mask="url(#mask0_0_78)">
<path d="M17.9375 25.9687L11.25 23.625L5.4375 25.875C5.02083 26.0416 4.63542 25.9948 4.28125 25.7343C3.92708 25.4739 3.75 25.125 3.75 24.6875V7.18746C3.75 6.91662 3.82812 6.67704 3.98438 6.46871C4.14062 6.26037 4.35417 6.10412 4.625 5.99996L10.4375 4.03121C10.7083 3.94787 10.9792 3.901 11.25 3.89058C11.5208 3.88016 11.7917 3.92704 12.0625 4.03121L18.75 6.37496L24.5625 4.12496C24.9792 3.95829 25.3646 4.00516 25.7188 4.26558C26.0729 4.526 26.25 4.87496 26.25 5.31246V22.8125C26.25 23.0833 26.1719 23.3229 26.0156 23.5312C25.8594 23.7395 25.6458 23.8958 25.375 24L19.5625 25.9687C19.2917 26.052 19.0208 26.0989 18.75 26.1093C18.4792 26.1197 18.2083 26.0729 17.9375 25.9687ZM17.5 23.1875V8.56246L12.5 6.81246V21.4375L17.5 23.1875ZM20 23.1875L23.75 21.9375V7.12496L20 8.56246V23.1875ZM6.25 22.875L10 21.4375V6.81246L6.25 8.06246V22.875Z" fill="white" fill-opacity="0.8"/>
</g>
</svg>
