<svg width="18" height="18" viewBox="0 0 18 18" fill="none" xmlns="http://www.w3.org/2000/svg">
<mask id="mask0_0_105" style="mask-type:alpha" maskUnits="userSpaceOnUse" x="0" y="0" width="18" height="18">
<rect width="18" height="18" fill="#D9D9D9"/>
</mask>
<g mask="url(#mask0_0_105)">
<path d="M8.99993 10.9874C8.91243 10.9874 8.82818 10.9749 8.74718 10.9499C8.66568 10.9249 8.59368 10.8749 8.53118 10.7999L5.13743 7.42488C5.03743 7.31238 4.98743 7.18113 4.98743 7.03113C4.98743 6.88113 5.04368 6.74988 5.15618 6.63738C5.26868 6.53738 5.39993 6.48738 5.54993 6.48738C5.69993 6.48738 5.83118 6.53738 5.94368 6.63738L8.99993 9.69363L12.0749 6.63738C12.1749 6.52488 12.2999 6.47163 12.4499 6.47763C12.5999 6.48413 12.7312 6.53738 12.8437 6.63738C12.9562 6.74988 13.0124 6.88413 13.0124 7.04013C13.0124 7.19663 12.9562 7.32488 12.8437 7.42488L9.46868 10.7999C9.40618 10.8749 9.33443 10.9249 9.25343 10.9499C9.17193 10.9749 9.08743 10.9874 8.99993 10.9874Z" fill="white" fill-opacity="0.6"/>
</g>
</svg>
