<svg width="30" height="30" viewBox="0 0 30 30" fill="none" xmlns="http://www.w3.org/2000/svg">
<mask id="mask0_0_40" style="mask-type:alpha" maskUnits="userSpaceOnUse" x="0" y="0" width="30" height="30">
<rect width="30" height="30" fill="#D9D9D9"/>
</mask>
<g mask="url(#mask0_0_40)">
<path d="M13.75 23.125C15.3125 23.125 16.6406 22.5781 17.7344 21.4844C18.8281 20.3906 19.375 19.0625 19.375 17.5C19.375 15.9375 18.8281 14.6094 17.7344 13.5156C16.6406 12.4219 15.3125 11.875 13.75 11.875C12.1875 11.875 10.8594 12.4219 9.76562 13.5156C8.67188 14.6094 8.125 15.9375 8.125 17.5C8.125 19.0625 8.67188 20.3906 9.76562 21.4844C10.8594 22.5781 12.1875 23.125 13.75 23.125ZM3.75 27.5C3.0625 27.5 2.47396 27.2552 1.98438 26.7656C1.49479 26.276 1.25 25.6875 1.25 25V10C1.25 9.3125 1.49479 8.72396 1.98438 8.23438C2.47396 7.74479 3.0625 7.5 3.75 7.5H7.6875L9.25 5.8125C9.47917 5.5625 9.75521 5.36458 10.0781 5.21875C10.401 5.07292 10.7396 5 11.0938 5H16.25C16.6042 5 16.901 5.11979 17.1406 5.35938C17.3802 5.59896 17.5 5.89583 17.5 6.25V10H3.75V25H23.75V13.75H25C25.1667 13.75 25.3281 13.7812 25.4844 13.8438C25.6406 13.9062 25.776 13.9948 25.8906 14.1094C26.0052 14.224 26.0938 14.3594 26.1563 14.5156C26.2188 14.6719 26.25 14.8333 26.25 15V25C26.25 25.6875 26.0052 26.276 25.5156 26.7656C25.026 27.2552 24.4375 27.5 23.75 27.5H3.75ZM23.75 7.5H22.5C22.1458 7.5 21.849 7.38021 21.6094 7.14062C21.3698 6.90104 21.25 6.60417 21.25 6.25C21.25 5.89583 21.3698 5.59896 21.6094 5.35938C21.849 5.11979 22.1458 5 22.5 5H23.75V3.75C23.75 3.39583 23.8698 3.09896 24.1094 2.85938C24.349 2.61979 24.6458 2.5 25 2.5C25.3542 2.5 25.651 2.61979 25.8906 2.85938C26.1302 3.09896 26.25 3.39583 26.25 3.75V5H27.5C27.8542 5 28.151 5.11979 28.3906 5.35938C28.6302 5.59896 28.75 5.89583 28.75 6.25C28.75 6.60417 28.6302 6.90104 28.3906 7.14062C28.151 7.38021 27.8542 7.5 27.5 7.5H26.25V8.75C26.25 9.10417 26.1302 9.40104 25.8906 9.64062C25.651 9.88021 25.3542 10 25 10C24.6458 10 24.349 9.88021 24.1094 9.64062C23.8698 9.40104 23.75 9.10417 23.75 8.75V7.5Z" fill="white"/>
</g>
</svg>
