<svg width="30" height="30" viewBox="0 0 30 30" fill="none" xmlns="http://www.w3.org/2000/svg">
<mask id="mask0_0_81" style="mask-type:alpha" maskUnits="userSpaceOnUse" x="0" y="0" width="30" height="30">
<rect width="30" height="30" fill="#D9D9D9"/>
</mask>
<g mask="url(#mask0_0_81)">
<path d="M12.4687 25.0004H17.4687V23.6254L19.0312 23.0004C20.3854 22.4588 21.5364 21.7036 22.4844 20.7348C23.4323 19.7661 24.1146 18.6879 24.5312 17.5004H5.40623C5.8229 18.6879 6.49998 19.7661 7.43748 20.7348C8.37498 21.7036 9.53123 22.4588 10.9062 23.0004L12.4687 23.6254V25.0004ZM11.2187 27.5004C10.8646 27.5004 10.5677 27.3806 10.3281 27.1411C10.0885 26.9015 9.96873 26.6046 9.96873 26.2504V25.3129C7.96873 24.5213 6.30728 23.3494 4.98436 21.7973C3.66144 20.2452 2.85415 18.4588 2.56248 16.4379C2.52082 16.0629 2.63019 15.7296 2.89061 15.4379C3.15103 15.1463 3.48957 15.0004 3.90623 15.0004H4.96873V6.12543C4.96873 5.81293 5.07811 5.53689 5.29686 5.29731C5.51561 5.05772 5.78123 4.9171 6.09373 4.87543L26.4375 2.62543C26.7292 2.58376 26.9739 2.65147 27.1719 2.82856C27.3698 3.00564 27.4687 3.24001 27.4687 3.53168C27.4687 3.76085 27.3906 3.96397 27.2344 4.14106C27.0781 4.31814 26.8854 4.42751 26.6562 4.46918L13.0937 6.00043V8.12543H26.5312C26.8021 8.12543 27.026 8.21397 27.2031 8.39106C27.3802 8.56814 27.4687 8.7921 27.4687 9.06293C27.4687 9.33376 27.3802 9.55772 27.2031 9.73481C27.026 9.91189 26.8021 10.0004 26.5312 10.0004H13.0937V15.0004H26.0312C26.4479 15.0004 26.7864 15.1463 27.0469 15.4379C27.3073 15.7296 27.4167 16.0629 27.375 16.4379C27.0833 18.4588 26.276 20.2452 24.9531 21.7973C23.6302 23.3494 21.9687 24.5213 19.9687 25.3129V26.2504C19.9687 26.6046 19.8489 26.9015 19.6094 27.1411C19.3698 27.3806 19.0729 27.5004 18.7187 27.5004H11.2187ZM9.96873 8.12543H11.2187V6.18793L9.96873 6.31293V8.12543ZM6.84373 8.12543H8.09373V6.56293L6.84373 6.68793V8.12543ZM9.96873 15.0004H11.2187V10.0004H9.96873V15.0004ZM6.84373 15.0004H8.09373V10.0004H6.84373V15.0004Z" fill="white" fill-opacity="0.8"/>
</g>
</svg>
